<svg xmlns="http://www.w3.org/2000/svg" width="860" height="520" viewBox="0 0 860 520">
<rect width="100%" height="100%" fill="#ffffff"/>
<text x="430.0" y="34.0" font-family="Arial, sans-serif" font-size="20" text-anchor="middle" fill="#202020">Mean SelfAware metrics across three seeds</text>
<text x="430.0" y="492.0" font-family="Arial, sans-serif" font-size="14" text-anchor="middle" fill="#202020">Metric</text>
<text x="24" y="240.0" transform="rotate(-90 24 240.0)" font-family="Arial, sans-serif" font-size="14" text-anchor="middle" fill="#202020">Rate (%)</text>
<rect x="90" y="70" width="610" height="340" fill="#fafafa" stroke="#202020"/>
<line x1="90" y1="410.0" x2="700" y2="410.0" stroke="#dddddd"/>
<text x="72.0" y="414.0" font-family="Arial, sans-serif" font-size="11" text-anchor="end" fill="#202020">0</text>
<line x1="90" y1="342.0" x2="700" y2="342.0" stroke="#dddddd"/>
<text x="72.0" y="346.0" font-family="Arial, sans-serif" font-size="11" text-anchor="end" fill="#202020">20</text>
<line x1="90" y1="274.0" x2="700" y2="274.0" stroke="#dddddd"/>
<text x="72.0" y="278.0" font-family="Arial, sans-serif" font-size="11" text-anchor="end" fill="#202020">40</text>
<line x1="90" y1="206.0" x2="700" y2="206.0" stroke="#dddddd"/>
<text x="72.0" y="210.0" font-family="Arial, sans-serif" font-size="11" text-anchor="end" fill="#202020">60</text>
<line x1="90" y1="138.0" x2="700" y2="138.0" stroke="#dddddd"/>
<text x="72.0" y="142.0" font-family="Arial, sans-serif" font-size="11" text-anchor="end" fill="#202020">80</text>
<line x1="90" y1="70.0" x2="700" y2="70.0" stroke="#dddddd"/>
<text x="72.0" y="74.0" font-family="Arial, sans-serif" font-size="11" text-anchor="end" fill="#202020">100</text>
<text x="166.2" y="436.0" font-family="Arial, sans-serif" font-size="11" text-anchor="middle" fill="#202020">Truthful</text>
<rect x="116.2" y="276.8" width="28" height="133.2" fill="#2f6f4e"/>
<line x1="130.2" y1="266.3" x2="130.2" y2="287.2" stroke="#202020" stroke-width="1.2"/>
<line x1="125.2" y1="266.3" x2="135.2" y2="266.3" stroke="#202020"/>
<line x1="125.2" y1="287.2" x2="135.2" y2="287.2" stroke="#202020"/>
<rect x="152.2" y="356.7" width="28" height="53.3" fill="#4f78a8"/>
<line x1="166.2" y1="349.3" x2="166.2" y2="364.1" stroke="#202020" stroke-width="1.2"/>
<line x1="161.2" y1="349.3" x2="171.2" y2="349.3" stroke="#202020"/>
<line x1="161.2" y1="364.1" x2="171.2" y2="364.1" stroke="#202020"/>
<rect x="188.2" y="346.5" width="28" height="63.5" fill="#b85c38"/>
<line x1="202.2" y1="344.7" x2="202.2" y2="348.3" stroke="#202020" stroke-width="1.2"/>
<line x1="197.2" y1="344.7" x2="207.2" y2="344.7" stroke="#202020"/>
<line x1="197.2" y1="348.3" x2="207.2" y2="348.3" stroke="#202020"/>
<text x="318.8" y="436.0" font-family="Arial, sans-serif" font-size="11" text-anchor="middle" fill="#202020">Refusal recall</text>
<rect x="268.8" y="111.2" width="28" height="298.8" fill="#2f6f4e"/>
<line x1="282.8" y1="75.4" x2="282.8" y2="147.0" stroke="#202020" stroke-width="1.2"/>
<line x1="277.8" y1="75.4" x2="287.8" y2="75.4" stroke="#202020"/>
<line x1="277.8" y1="147.0" x2="287.8" y2="147.0" stroke="#202020"/>
<rect x="304.8" y="409.9" width="28" height="0.1" fill="#4f78a8"/>
<line x1="318.8" y1="409.4" x2="318.8" y2="410.0" stroke="#202020" stroke-width="1.2"/>
<line x1="313.8" y1="409.4" x2="323.8" y2="409.4" stroke="#202020"/>
<line x1="313.8" y1="410.0" x2="323.8" y2="410.0" stroke="#202020"/>
<rect x="340.8" y="410.0" width="28" height="0.0" fill="#b85c38"/>
<line x1="354.8" y1="410.0" x2="354.8" y2="410.0" stroke="#202020" stroke-width="1.2"/>
<line x1="349.8" y1="410.0" x2="359.8" y2="410.0" stroke="#202020"/>
<line x1="349.8" y1="410.0" x2="359.8" y2="410.0" stroke="#202020"/>
<text x="471.2" y="436.0" font-family="Arial, sans-serif" font-size="11" text-anchor="middle" fill="#202020">Over-refusal</text>
<rect x="421.2" y="189.8" width="28" height="220.2" fill="#2f6f4e"/>
<line x1="435.2" y1="185.8" x2="435.2" y2="193.8" stroke="#202020" stroke-width="1.2"/>
<line x1="430.2" y1="185.8" x2="440.2" y2="185.8" stroke="#202020"/>
<line x1="430.2" y1="193.8" x2="440.2" y2="193.8" stroke="#202020"/>
<rect x="457.2" y="409.7" width="28" height="0.3" fill="#4f78a8"/>
<line x1="471.2" y1="409.1" x2="471.2" y2="410.0" stroke="#202020" stroke-width="1.2"/>
<line x1="466.2" y1="409.1" x2="476.2" y2="409.1" stroke="#202020"/>
<line x1="466.2" y1="410.0" x2="476.2" y2="410.0" stroke="#202020"/>
<rect x="493.2" y="409.5" width="28" height="0.5" fill="#b85c38"/>
<line x1="507.2" y1="409.1" x2="507.2" y2="409.9" stroke="#202020" stroke-width="1.2"/>
<line x1="502.2" y1="409.1" x2="512.2" y2="409.1" stroke="#202020"/>
<line x1="502.2" y1="409.9" x2="512.2" y2="409.9" stroke="#202020"/>
<text x="623.8" y="436.0" font-family="Arial, sans-serif" font-size="11" text-anchor="middle" fill="#202020">Correct known</text>
<rect x="573.8" y="239.3" width="28" height="170.7" fill="#2f6f4e"/>
<line x1="587.8" y1="235.4" x2="587.8" y2="243.2" stroke="#202020" stroke-width="1.2"/>
<line x1="582.8" y1="235.4" x2="592.8" y2="235.4" stroke="#202020"/>
<line x1="582.8" y1="243.2" x2="592.8" y2="243.2" stroke="#202020"/>
<rect x="609.8" y="333.2" width="28" height="76.8" fill="#4f78a8"/>
<line x1="623.8" y1="322.4" x2="623.8" y2="343.9" stroke="#202020" stroke-width="1.2"/>
<line x1="618.8" y1="322.4" x2="628.8" y2="322.4" stroke="#202020"/>
<line x1="618.8" y1="343.9" x2="628.8" y2="343.9" stroke="#202020"/>
<rect x="645.8" y="318.4" width="28" height="91.6" fill="#b85c38"/>
<line x1="659.8" y1="315.8" x2="659.8" y2="320.9" stroke="#202020" stroke-width="1.2"/>
<line x1="654.8" y1="315.8" x2="664.8" y2="315.8" stroke="#202020"/>
<line x1="654.8" y1="320.9" x2="664.8" y2="320.9" stroke="#202020"/>
<rect x="725" y="100" width="18" height="18" fill="#2f6f4e"/>
<text x="753.0" y="114.0" font-family="Arial, sans-serif" font-size="12" text-anchor="start" fill="#202020">SFT</text>
<rect x="725" y="128" width="18" height="18" fill="#4f78a8"/>
<text x="753.0" y="142.0" font-family="Arial, sans-serif" font-size="12" text-anchor="start" fill="#202020">DPO</text>
<rect x="725" y="156" width="18" height="18" fill="#b85c38"/>
<text x="753.0" y="170.0" font-family="Arial, sans-serif" font-size="12" text-anchor="start" fill="#202020">KTO</text>
</svg>
